<svg width="130" height="40" viewBox="0 0 130 40" fill="none" xmlns="http://www.w3.org/2000/svg">
<rect width="40" height="40" rx="20" fill="#717171"/>
<path d="M29.3932 10.4553C29.277 10.355 29.1356 10.2882 28.9843 10.2623C28.8329 10.2364 28.6774 10.2522 28.5344 10.3081L9.53504 17.7434C9.26577 17.8481 9.03781 18.0375 8.88547 18.283C8.73312 18.5284 8.66465 18.8167 8.69034 19.1045C8.71604 19.3923 8.83453 19.6639 9.02796 19.8785C9.22139 20.0931 9.47929 20.239 9.76285 20.2944L14.6857 21.2609V26.75C14.6847 27.049 14.7735 27.3414 14.9407 27.5893C15.1079 27.8372 15.3456 28.0291 15.6232 28.1403C15.9003 28.2535 16.205 28.2806 16.4978 28.2183C16.7906 28.1559 17.0578 28.0069 17.2647 27.7906L19.6385 25.3287L23.4044 28.625C23.6761 28.866 24.0265 28.9994 24.3897 29C24.5489 28.9999 24.707 28.9749 24.8585 28.9259C25.1059 28.8474 25.3285 28.7054 25.504 28.5141C25.6795 28.3228 25.8018 28.0889 25.8588 27.8356L29.6641 11.2812C29.6981 11.1319 29.6909 10.9762 29.6432 10.8307C29.5954 10.6852 29.509 10.5554 29.3932 10.4553ZM23.6613 13.8303L15.2622 19.8453L10.6122 18.9331L23.6613 13.8303ZM16.1857 26.75V22.2987L18.5097 24.3369L16.1857 26.75ZM24.3916 27.5L16.6403 20.7031L27.7966 12.7072L24.3916 27.5Z" fill="#F8F8F8"/>
<rect x="45" width="40" height="40" rx="20" fill="#717171"/>
<path d="M69.9351 28H59.9351C56.9351 28 54.9351 26 54.9351 23V17C54.9351 14 56.9351 12 59.9351 12H69.9351C72.9351 12 74.9351 14 74.9351 17V23C74.9351 26 72.9351 28 69.9351 28Z" stroke="#F8F8F8" stroke-width="1.5" stroke-miterlimit="10" stroke-linecap="round" stroke-linejoin="round"/>
<path d="M64.3352 17.5L66.8352 19C67.7352 19.6 67.7352 20.5 66.8352 21.1L64.3352 22.6C63.3352 23.2 62.5352 22.7 62.5352 21.6V18.6C62.5352 17.3 63.3352 16.9 64.3352 17.5Z" stroke="#F8F8F8" stroke-width="1.5" stroke-miterlimit="10" stroke-linecap="round" stroke-linejoin="round"/>
<rect x="90" width="40" height="40" rx="20" fill="#717171"/>
<path d="M106.935 30H112.935C117.935 30 119.935 28 119.935 23V17C119.935 12 117.935 10 112.935 10H106.935C101.935 10 99.9351 12 99.9351 17V23C99.9351 28 101.935 30 106.935 30Z" stroke="#F8F8F8" stroke-width="1.5" stroke-linecap="round" stroke-linejoin="round"/>
<path d="M109.935 23.5C111.868 23.5 113.435 21.933 113.435 20C113.435 18.067 111.868 16.5 109.935 16.5C108.002 16.5 106.435 18.067 106.435 20C106.435 21.933 108.002 23.5 109.935 23.5Z" stroke="#F8F8F8" stroke-width="1.5" stroke-linecap="round" stroke-linejoin="round"/>
<path d="M115.571 15H115.583" stroke="#F8F8F8" stroke-width="2" stroke-linecap="round" stroke-linejoin="round"/>
</svg>
