<svg width="60" height="60" viewBox="0 0 60 60" fill="none" xmlns="http://www.w3.org/2000/svg">
<rect width="60" height="60" rx="30" fill="#E59046" fill-opacity="0.15"/>
<path d="M37.5 25.5C37.5 31.305 32.46 36 26.25 36L24.855 37.68L24.03 38.67C23.325 39.51 21.975 39.33 21.51 38.325L19.5 33.9C16.77 31.98 15 28.935 15 25.5C15 19.695 20.04 15 26.25 15C30.78 15 34.695 17.505 36.45 21.105C37.125 22.44 37.5 23.925 37.5 25.5Z" stroke="#E59046" stroke-width="1.5" stroke-linecap="round" stroke-linejoin="round"/>
<path d="M45 31.2899C45 34.7249 43.23 37.77 40.5 39.69L38.49 44.1149C38.025 45.1199 36.675 45.315 35.97 44.46L33.75 41.7899C30.12 41.7899 26.88 40.185 24.855 37.68L26.25 36C32.46 36 37.5 31.305 37.5 25.5C37.5 23.925 37.125 22.44 36.45 21.105C41.355 22.23 45 26.3699 45 31.2899Z" stroke="#E59046" stroke-width="1.5" stroke-linecap="round" stroke-linejoin="round"/>
<path d="M22.5 25.5H30" stroke="#E59046" stroke-width="1.5" stroke-linecap="round" stroke-linejoin="round"/>
</svg>
