<svg width="60" height="60" viewBox="0 0 60 60" fill="none" xmlns="http://www.w3.org/2000/svg">
<rect width="60" height="60" rx="30" fill="#E59046" fill-opacity="0.15"/>
<path d="M32.5951 17.265L35.2351 22.545C35.5951 23.28 36.5551 23.985 37.3651 24.12L42.1501 24.915C45.2101 25.425 45.9301 27.645 43.7251 29.835L40.0051 33.555C39.3751 34.185 39.0301 35.4 39.2251 36.27L40.2901 40.875C41.1301 44.52 39.1951 45.93 35.9701 44.025L31.4851 41.37C30.6751 40.89 29.3401 40.89 28.5151 41.37L24.0301 44.025C20.8201 45.93 18.8701 44.505 19.7101 40.875L20.7751 36.27C20.9701 35.4 20.6251 34.185 19.9951 33.555L16.2751 29.835C14.0851 27.645 14.7901 25.425 17.8501 24.915L22.6351 24.12C23.4301 23.985 24.3901 23.28 24.7501 22.545L27.3901 17.265C28.8301 14.4 31.1701 14.4 32.5951 17.265Z" stroke="#E59046" stroke-width="1.5" stroke-linecap="round" stroke-linejoin="round"/>
</svg>
