<svg width="23" height="22" viewBox="0 0 23 22" fill="none" xmlns="http://www.w3.org/2000/svg">
<path d="M21.4329 17.33C21.4329 17.69 21.3529 18.06 21.1829 18.42C21.0129 18.78 20.7929 19.12 20.5029 19.44C20.0129 19.98 19.4729 20.37 18.8629 20.62C18.2629 20.87 17.6129 21 16.9129 21C15.8929 21 14.8029 20.76 13.6529 20.27C12.5029 19.78 11.3529 19.12 10.2129 18.29C9.06289 17.45 7.97289 16.52 6.93289 15.49C5.90289 14.45 4.97289 13.36 4.14289 12.22C3.32289 11.08 2.66289 9.94 2.18289 8.81C1.70289 7.67 1.46289 6.58 1.46289 5.54C1.46289 4.86 1.58289 4.21 1.82289 3.61C2.06289 3 2.44289 2.44 2.97289 1.94C3.61289 1.31 4.31289 1 5.05289 1C5.33289 1 5.61289 1.06 5.86289 1.18C6.12289 1.3 6.35289 1.48 6.53289 1.74L8.85289 5.01C9.03289 5.26 9.16289 5.49 9.25289 5.71C9.34289 5.92 9.39289 6.13 9.39289 6.32C9.39289 6.56 9.32289 6.8 9.18289 7.03C9.05289 7.26 8.86289 7.5 8.62289 7.74L7.86289 8.53C7.75289 8.64 7.70289 8.77 7.70289 8.93C7.70289 9.01 7.71289 9.08 7.73289 9.16C7.76289 9.24 7.79289 9.3 7.81289 9.36C7.99289 9.69 8.30289 10.12 8.74289 10.64C9.19289 11.16 9.67289 11.69 10.1929 12.22C10.7329 12.75 11.2529 13.24 11.7829 13.69C12.3029 14.13 12.7329 14.43 13.0729 14.61C13.1229 14.63 13.1829 14.66 13.2529 14.69C13.3329 14.72 13.4129 14.73 13.5029 14.73C13.6729 14.73 13.8029 14.67 13.9129 14.56L14.6729 13.81C14.9229 13.56 15.1629 13.37 15.3929 13.25C15.6229 13.11 15.8529 13.04 16.1029 13.04C16.2929 13.04 16.4929 13.08 16.7129 13.17C16.9329 13.26 17.1629 13.39 17.4129 13.56L20.7229 15.91C20.9829 16.09 21.1629 16.3 21.2729 16.55C21.3729 16.8 21.4329 17.05 21.4329 17.33Z" stroke="#F8F8F8" stroke-width="1.5" stroke-miterlimit="10"/>
</svg>
