<svg width="22" height="19" viewBox="0 0 22 19" fill="none" xmlns="http://www.w3.org/2000/svg">
<path d="M21.6832 0.273256C21.567 0.172913 21.4256 0.106179 21.2743 0.0802424C21.123 0.0543058 20.9674 0.0701501 20.8245 0.126068L1.82508 7.56138C1.55581 7.66608 1.32785 7.85543 1.1755 8.1009C1.02316 8.34638 0.954685 8.6347 0.980384 8.92246C1.00608 9.21022 1.12457 9.48184 1.31799 9.69644C1.51142 9.91103 1.76933 10.057 2.05289 10.1123L6.9757 11.0789V16.5679C6.97473 16.8669 7.06358 17.1593 7.23074 17.4072C7.3979 17.6551 7.63565 17.8471 7.9132 17.9583C8.19032 18.0714 8.49507 18.0986 8.78783 18.0362C9.0806 17.9739 9.34782 17.8248 9.55476 17.6086L11.9285 15.1467L15.6945 18.4429C15.9662 18.6839 16.3166 18.8173 16.6798 18.8179C16.8389 18.8178 16.9971 18.7928 17.1485 18.7439C17.396 18.6654 17.6185 18.5234 17.794 18.3321C17.9695 18.1408 18.0919 17.9069 18.1488 17.6536L21.9541 1.09919C21.9882 0.949896 21.9809 0.79415 21.9332 0.64865C21.8855 0.50315 21.7991 0.373382 21.6832 0.273256ZM15.9513 3.64826L7.55226 9.66326L2.90226 8.75107L15.9513 3.64826ZM8.4757 16.5679V12.1167L10.7998 14.1548L8.4757 16.5679ZM16.6816 17.3179L8.93039 10.5211L20.0866 2.52513L16.6816 17.3179Z" fill="#B0B3B9"/>
</svg>
